<svg width="14" height="13" viewBox="0 0 14 13" fill="none" xmlns="http://www.w3.org/2000/svg">
<path d="M7.73899 2.45514C7.65438 2.37857 7.5432 2.3381 7.42917 2.34234C7.31514 2.34659 7.20728 2.39522 7.12859 2.47786C7.04991 2.5605 7.00663 2.67062 7.00798 2.78472C7.00933 2.89882 7.0552 3.00788 7.13582 3.08864L10.7822 6.5618L2.18741 6.5618C2.07137 6.5618 1.96009 6.6079 1.87805 6.68995C1.796 6.77199 1.74991 6.88327 1.74991 6.9993C1.74991 7.11534 1.796 7.22662 1.87805 7.30866C1.96009 7.39071 2.07137 7.4368 2.18741 7.4368L10.7822 7.4368L7.13582 10.9106C7.09419 10.9502 7.06076 10.9976 7.03745 11.0501C7.01414 11.1026 7.00141 11.1592 6.99997 11.2167C6.99854 11.2741 7.00843 11.3313 7.02909 11.3849C7.04974 11.4385 7.08076 11.4875 7.12037 11.5292C7.15997 11.5708 7.20739 11.6042 7.25991 11.6275C7.31243 11.6509 7.36903 11.6636 7.42648 11.665C7.48392 11.6665 7.54109 11.6566 7.59471 11.6359C7.64833 11.6153 7.69736 11.5842 7.73899 11.5446L12.0673 7.42222C12.1621 7.33234 12.2237 7.21314 12.2423 7.08389C12.2531 7.02799 12.2529 6.97054 12.2417 6.91472C12.2229 6.78589 12.1612 6.66713 12.0667 6.57756L7.73899 2.45514Z" fill="black"/>
</svg>
